<svg xmlns="http://www.w3.org/2000/svg" viewBox="0 0 512 512" width="512" height="512">
	<style>
		tspan { white-space:pre }
		.shp0 { fill: #eeeeee } 
	</style>
	<path id="Layer" fill-rule="evenodd" class="shp0" d="M512 330.28L471.96 330.28L471.96 78.05C471.96 67.02 462.98 58.04 451.95 58.04L60.05 58.04C49.02 58.04 40.04 67.02 40.04 78.05L40.04 229.54L122.86 108.5L189.29 191.53L219.39 148.26L347.85 315.27L347.85 330.28L308.89 330.28L221.01 216.04L108.52 377.75L75.65 354.88L165.44 225.81L125.37 175.73L40.04 300.44L40.04 398.34C40.04 409.38 49.02 418.36 60.05 418.36L264.78 418.36L264.78 458.4L60.05 458.4C26.94 458.4 0 431.46 0 398.34L0 78.05C0 44.94 26.94 18 60.05 18L451.95 18C485.06 18 512 44.94 512 78.05L512 330.28ZM377.88 210.17C344.77 210.17 317.82 183.23 317.82 150.12C317.82 117 344.77 90.06 377.88 90.06C410.99 90.06 437.93 117 437.93 150.12C437.93 183.23 410.99 210.17 377.88 210.17ZM397.9 150.12C397.9 139.08 388.92 130.1 377.88 130.1C366.84 130.1 357.86 139.08 357.86 150.12C357.86 161.16 366.84 170.14 377.88 170.14C388.92 170.14 397.9 161.16 397.9 150.12ZM427.93 370.32L512 370.32L512 410.35L427.93 410.35L427.93 494.43L387.89 494.43L387.89 410.35L303.81 410.35L303.81 370.32L387.89 370.32L387.89 286.24L427.93 286.24L427.93 370.32Z" />
</svg>